<?xml version="1.0" encoding="UTF-8" standalone="no"?>
<!-- Created with Inkscape (http://www.inkscape.org/) -->

<svg
   xmlns:dc="http://purl.org/dc/elements/1.1/"
   xmlns:cc="http://creativecommons.org/ns#"
   xmlns:rdf="http://www.w3.org/1999/02/22-rdf-syntax-ns#"
   xmlns:svg="http://www.w3.org/2000/svg"
   xmlns="http://www.w3.org/2000/svg"
   xmlns:sodipodi="http://sodipodi.sourceforge.net/DTD/sodipodi-0.dtd"
   xmlns:inkscape="http://www.inkscape.org/namespaces/inkscape"
   id="svg3014"
   height="22"
   width="22"
   version="1.1"
   inkscape:version="0.48.3.1 r9886"
   sodipodi:docname="input-keyboard-save (copy).svg">
  <defs
     id="defs10" />
  <sodipodi:namedview
     pagecolor="#ffffff"
     bordercolor="#666666"
     borderopacity="1"
     objecttolerance="10"
     gridtolerance="10"
     guidetolerance="10"
     inkscape:pageopacity="0"
     inkscape:pageshadow="2"
     inkscape:window-width="640"
     inkscape:window-height="480"
     id="namedview8"
     showgrid="false"
     inkscape:zoom="10.727273"
     inkscape:cx="11.5"
     inkscape:cy="11"
     inkscape:window-x="89"
     inkscape:window-y="94"
     inkscape:window-maximized="0"
     inkscape:current-layer="svg3014" />
  <metadata
     id="metadata3019">
    <rdf:RDF>
      <cc:Work
         rdf:about="">
        <dc:format>image/svg+xml</dc:format>
        <dc:type
           rdf:resource="http://purl.org/dc/dcmitype/StillImage" />
        <dc:title />
      </cc:Work>
    </rdf:RDF>
  </metadata>
  <g
     id="g3951"
     transform="matrix(0.95990059,0,0,0.95990059,22.077714,0.46114317)">
    <path
       id="path3932"
       style="opacity:0.3;color:#000000;fill:none;stroke:#dfdbd2;stroke-width:0.5;stroke-linecap:round"
       d="m -21,5.2331 c -1.108,0 -2,0.892 -2,2 v 8 c 0,1.108 0.892,2 2,2 h 19 c 1.108,0 2,-0.892 2,-2 V 7.2332 c 0,-1.108 -0.892,-2 -2,-2 z m 1.5,1.7034 h 1 c 0.27699,0 0.5,0.223 0.5,0.5 v 1.2966 c 0,0.277 -0.22301,0.5 -0.5,0.5 h -1 c -0.277,0 -0.5,-0.223 -0.5,-0.5 V 7.4365 c 0,-0.277 0.223,-0.5 0.5,-0.5 z m 3,0 h 1 c 0.27699,0 0.5,0.223 0.5,0.5 v 1.2966 c 0,0.277 -0.22301,0.5 -0.5,0.5 h -1 c -0.277,0 -0.5,-0.223 -0.5,-0.5 V 7.4365 c 0,-0.277 0.223,-0.5 0.5,-0.5 z m 3,0 h 1 c 0.27699,0 0.5,0.223 0.5,0.5 v 1.2966 c 0,0.277 -0.22301,0.5 -0.5,0.5 h -1 c -0.277,0 -0.5,-0.223 -0.5,-0.5 V 7.4365 c 0,-0.277 0.223,-0.5 0.5,-0.5 z m 3,0 h 1 c 0.27699,0 0.5,0.223 0.5,0.5 v 1.2966 c 0,0.277 -0.22301,0.5 -0.5,0.5 h -1 c -0.27699,0 -0.5,-0.223 -0.5,-0.5 V 7.4365 c 0,-0.277 0.22301,-0.5 0.5,-0.5 z m 3,0 h 1 c 0.27699,0 0.5,0.223 0.5,0.5 v 1.2966 c 0,0.277 -0.22301,0.5 -0.5,0.5 h -1 c -0.27699,0 -0.5,-0.223 -0.5,-0.5 V 7.4365 c 0,-0.277 0.22301,-0.5 0.5,-0.5 z m 3,0 h 1 c 0.27699,0 0.5,0.223 0.5,0.5 v 1.2966 c 0,0.277 -0.22301,0.5 -0.5,0.5 h -1 c -0.27699,0 -0.5,-0.223 -0.5,-0.5 V 7.4365 c 0,-0.277 0.22301,-0.5 0.5,-0.5 z m -15,3.0403 h 2 c 0.27699,0 0.5,0.223 0.5,0.5 v 1.2564 c 0,0.277 -0.22301,0.5 -0.5,0.5 h -2 c -0.27699,0 -0.5,-0.223 -0.5,-0.5 v -1.2564 c 0,-0.277 0.22301,-0.5 0.5,-0.5 z m 4,0 h 1 c 0.27699,0 0.5,0.223 0.5,0.5 v 1.2564 c 0,0.277 -0.22301,0.5 -0.5,0.5 h -1 c -0.277,0 -0.5,-0.223 -0.5,-0.5 v -1.2564 c 0,-0.277 0.223,-0.5 0.5,-0.5 z m 3,0 h 1 c 0.27699,0 0.5,0.223 0.5,0.5 v 1.2564 c 0,0.277 -0.22301,0.5 -0.5,0.5 h -1 c -0.277,0 -0.5,-0.223 -0.5,-0.5 v -1.2564 c 0,-0.277 0.223,-0.5 0.5,-0.5 z m 3,0 h 1 c 0.27699,0 0.5,0.223 0.5,0.5 v 1.2564 c 0,0.277 -0.22301,0.5 -0.5,0.5 h -1 c -0.27699,0 -0.5,-0.223 -0.5,-0.5 v -1.2564 c 0,-0.277 0.22301,-0.5 0.5,-0.5 z m 3,0 h 3 c 0.27699,0 0.5,0.223 0.5,0.5 v 1.2564 c 0,0.277 -0.22301,0.5 -0.5,0.5 h -3 c -0.27699,0 -0.5,-0.223 -0.5,-0.5 v -1.2564 c 0,-0.277 0.22301,-0.5 0.5,-0.5 z m -13,3 h 1 c 0.27699,0 0.5,0.223 0.5,0.5 v 1.2564 c 0,0.277 -0.22301,0.5 -0.5,0.5 h -1 c -0.277,0 -0.5,-0.223 -0.5,-0.5 v -1.2564 c 0,-0.277 0.223,-0.5 0.5,-0.5 z m 3,0 h 10 c 0.27699,0 0.5,0.223 0.5,0.5 v 1.2564 c 0,0.277 -0.22301,0.5 -0.5,0.5 h -10 c -0.277,0 -0.5,-0.223 -0.5,-0.5 v -1.2564 c 0,-0.277 0.223,-0.5 0.5,-0.5 z m 12,0 h 1 c 0.27699,0 0.5,0.223 0.5,0.5 v 1.2564 c 0,0.277 -0.22301,0.5 -0.5,0.5 h -1 c -0.27699,0 -0.5,-0.223 -0.5,-0.5 v -1.2564 c 0,-0.277 0.22301,-0.5 0.5,-0.5 z"
       inkscape:connector-curvature="0" />
    <path
       id="path3101"
       style="opacity:0.3;color:#000000"
       d="m -21,6 c -1.108,0 -2,0.892 -2,2 v 8 c 0,1.108 0.892,2 2,2 h 19 c 1.108,0 2,-0.892 2,-2 V 8 C 0,6.892 -0.892,6 -2,6 z m 1.5,0 h 1 c 0.27699,0 0.5,0.223 0.5,0.5 v 1 c 0,0.277 -0.22301,0.5 -0.5,0.5 h -1 C -19.777,8 -20,7.777 -20,7.5 v -1 C -20,6.223 -19.777,6 -19.5,6 z m 3,0 h 1 c 0.27699,0 0.5,0.223 0.5,0.5 v 1 c 0,0.277 -0.22301,0.5 -0.5,0.5 h -1 C -16.777,8 -17,7.777 -17,7.5 v -1 C -17,6.223 -16.777,6 -16.5,6 z m 3,0 h 1 c 0.27699,0 0.5,0.223 0.5,0.5 v 1 c 0,0.277 -0.22301,0.5 -0.5,0.5 h -1 C -13.777,8 -14,7.777 -14,7.5 v -1 C -14,6.223 -13.777,6 -13.5,6 z m 3,0 h 1 C -9.223,6 -9,6.223 -9,6.5 v 1 C -9,7.777 -9.223,8 -9.5,8 h -1 C -10.777,8 -11,7.777 -11,7.5 v -1 C -11,6.223 -10.777,6 -10.5,6 z m 3,0 h 1 C -6.223,6 -6,6.223 -6,6.5 v 1 C -6,7.777 -6.223,8 -6.5,8 h -1 C -7.777,8 -8,7.777 -8,7.5 v -1 C -8,6.223 -7.777,6 -7.5,6 z m 3,0 h 1 C -3.223,6 -3,6.223 -3,6.5 v 1 C -3,7.777 -3.223,8 -3.5,8 h -1 C -4.777,8 -5,7.777 -5,7.5 v -1 C -5,6.223 -4.777,6 -4.5,6 z m -15,3 h 2 c 0.27699,0 0.5,0.223 0.5,0.5 v 1 c 0,0.277 -0.22301,0.5 -0.5,0.5 h -2 c -0.27699,0 -0.5,-0.223 -0.5,-0.5 v -1 C -20,9.223 -19.777,9 -19.5,9 z m 4,0 h 1 c 0.27699,0 0.5,0.223 0.5,0.5 v 1 c 0,0.277 -0.22301,0.5 -0.5,0.5 h -1 c -0.277,0 -0.5,-0.223 -0.5,-0.5 v -1 C -16,9.223 -15.777,9 -15.5,9 z m 3,0 h 1 c 0.27699,0 0.5,0.223 0.5,0.5 v 1 c 0,0.277 -0.22301,0.5 -0.5,0.5 h -1 c -0.277,0 -0.5,-0.223 -0.5,-0.5 v -1 C -13,9.223 -12.777,9 -12.5,9 z m 3,0 h 1 C -8.223,9 -8,9.223 -8,9.5 v 1 c 0,0.277 -0.22301,0.5 -0.5,0.5 h -1 C -9.777,11 -10,10.777 -10,10.5 v -1 C -10,9.223 -9.777,9 -9.5,9 z m 3,0 h 3 C -3.223,9 -3,9.223 -3,9.5 v 1 c 0,0.277 -0.22301,0.5 -0.5,0.5 h -3 C -6.777,11 -7,10.777 -7,10.5 v -1 C -7,9.223 -6.777,9 -6.5,9 z m -13,3 h 1 c 0.27699,0 0.5,0.223 0.5,0.5 v 1 c 0,0.277 -0.22301,0.5 -0.5,0.5 h -1 c -0.277,0 -0.5,-0.223 -0.5,-0.5 v -1 c 0,-0.277 0.223,-0.5 0.5,-0.5 z m 3,0 h 10 c 0.27699,0 0.5,0.223 0.5,0.5 v 1 c 0,0.277 -0.22301,0.5 -0.5,0.5 h -10 c -0.277,0 -0.5,-0.223 -0.5,-0.5 v -1 c 0,-0.277 0.223,-0.5 0.5,-0.5 z m 12,0 h 1 c 0.27699,0 0.5,0.223 0.5,0.5 v 1 c 0,0.277 -0.22301,0.5 -0.5,0.5 h -1 C -4.777,14 -5,13.777 -5,13.5 v -1 C -5,12.223 -4.777,12 -4.5,12 z"
       inkscape:connector-curvature="0" />
    <path
       id="path3081"
       d="m -21,5 c -1.108,0 -2,0.892 -2,2 v 8 c 0,1.108 0.892,2 2,2 h 19 c 1.108,0 2,-0.892 2,-2 V 7 C 0,5.892 -0.892,5 -2,5 h -19 z m 1.5,2 h 1 c 0.27699,0 0.5,0.223 0.5,0.5 v 1 c 0,0.277 -0.22301,0.5 -0.5,0.5 h -1 C -19.777,9 -20,8.777 -20,8.5 v -1 C -20,7.223 -19.777,7 -19.5,7 z m 3,0 h 1 c 0.27699,0 0.5,0.223 0.5,0.5 v 1 c 0,0.277 -0.22301,0.5 -0.5,0.5 h -1 C -16.777,9 -17,8.777 -17,8.5 v -1 C -17,7.223 -16.777,7 -16.5,7 z m 3,0 h 1 c 0.27699,0 0.5,0.223 0.5,0.5 v 1 c 0,0.277 -0.22301,0.5 -0.5,0.5 h -1 C -13.777,9 -14,8.777 -14,8.5 v -1 C -14,7.223 -13.777,7 -13.5,7 z m 3,0 h 1 C -9.223,7 -9,7.223 -9,7.5 v 1 C -9,8.777 -9.223,9 -9.5,9 h -1 C -10.777,9 -11,8.777 -11,8.5 v -1 C -11,7.223 -10.777,7 -10.5,7 z m 3,0 h 1 C -6.223,7 -6,7.223 -6,7.5 v 1 C -6,8.777 -6.223,9 -6.5,9 h -1 C -7.777,9 -8,8.777 -8,8.5 v -1 C -8,7.223 -7.777,7 -7.5,7 z m 3,0 h 1 C -3.223,7 -3,7.223 -3,7.5 v 1 C -3,8.777 -3.223,9 -3.5,9 h -1 C -4.777,9 -5,8.777 -5,8.5 v -1 C -5,7.223 -4.777,7 -4.5,7 z m -15,3 h 2 c 0.27699,0 0.5,0.223 0.5,0.5 v 1 c 0,0.277 -0.22301,0.5 -0.5,0.5 h -2 c -0.27699,0 -0.5,-0.223 -0.5,-0.5 v -1 c 0,-0.277 0.22301,-0.5 0.5,-0.5 z m 4,0 h 1 c 0.27699,0 0.5,0.223 0.5,0.5 v 1 c 0,0.277 -0.22301,0.5 -0.5,0.5 h -1 c -0.277,0 -0.5,-0.223 -0.5,-0.5 v -1 c 0,-0.277 0.223,-0.5 0.5,-0.5 z m 3,0 h 1 c 0.27699,0 0.5,0.223 0.5,0.5 v 1 c 0,0.277 -0.22301,0.5 -0.5,0.5 h -1 c -0.277,0 -0.5,-0.223 -0.5,-0.5 v -1 c 0,-0.277 0.223,-0.5 0.5,-0.5 z m 3,0 h 1 c 0.27699,0 0.5,0.223 0.5,0.5 v 1 c 0,0.277 -0.22301,0.5 -0.5,0.5 h -1 C -9.777,12 -10,11.777 -10,11.5 v -1 c 0,-0.277 0.22301,-0.5 0.5,-0.5 z m 3,0 h 3 c 0.27699,0 0.5,0.223 0.5,0.5 v 1 c 0,0.277 -0.22301,0.5 -0.5,0.5 h -3 C -6.777,12 -7,11.777 -7,11.5 v -1 C -7,10.223 -6.777,10 -6.5,10 z m -13,3 h 1 c 0.27699,0 0.5,0.223 0.5,0.5 v 1 c 0,0.277 -0.22301,0.5 -0.5,0.5 h -1 c -0.277,0 -0.5,-0.223 -0.5,-0.5 v -1 c 0,-0.277 0.223,-0.5 0.5,-0.5 z m 3,0 h 10 c 0.27699,0 0.5,0.223 0.5,0.5 v 1 c 0,0.277 -0.22301,0.5 -0.5,0.5 h -10 c -0.277,0 -0.5,-0.223 -0.5,-0.5 v -1 c 0,-0.277 0.223,-0.5 0.5,-0.5 z m 12,0 h 1 c 0.27699,0 0.5,0.223 0.5,0.5 v 1 c 0,0.277 -0.22301,0.5 -0.5,0.5 h -1 C -4.777,15 -5,14.777 -5,14.5 v -1 C -5,13.223 -4.777,13 -4.5,13 z"
       style="fill:#dfdbd2"
       inkscape:connector-curvature="0" />
  </g>
</svg>
