<?xml version="1.0" encoding="UTF-8" standalone="no"?>
<!-- Created with Inkscape (http://www.inkscape.org/) -->

<svg
   xmlns:dc="http://purl.org/dc/elements/1.1/"
   xmlns:cc="http://creativecommons.org/ns#"
   xmlns:rdf="http://www.w3.org/1999/02/22-rdf-syntax-ns#"
   xmlns:svg="http://www.w3.org/2000/svg"
   xmlns="http://www.w3.org/2000/svg"
   xmlns:sodipodi="http://sodipodi.sourceforge.net/DTD/sodipodi-0.dtd"
   xmlns:inkscape="http://www.inkscape.org/namespaces/inkscape"
   id="svg7384"
   style="enable-background:new"
   height="16"
   width="16"
   version="1.1"
   inkscape:version="0.91 r13725"
   sodipodi:docname="user-trash-full.svg">
  <sodipodi:namedview
     pagecolor="#ffffff"
     bordercolor="#666666"
     borderopacity="1"
     objecttolerance="10"
     gridtolerance="10"
     guidetolerance="10"
     inkscape:pageopacity="0"
     inkscape:pageshadow="2"
     inkscape:window-width="1920"
     inkscape:window-height="1030"
     id="namedview11"
     showgrid="true"
     inkscape:zoom="41.7193"
     inkscape:cx="4.4461258"
     inkscape:cy="9.7188642"
     inkscape:window-x="0"
     inkscape:window-y="0"
     inkscape:window-maximized="1"
     inkscape:current-layer="svg7384">
    <inkscape:grid
       type="xygrid"
       id="grid4139" />
  </sodipodi:namedview>
  <metadata
     id="metadata90">
    <rdf:RDF>
      <cc:Work
         rdf:about="">
        <dc:format>image/svg+xml</dc:format>
        <dc:type
           rdf:resource="http://purl.org/dc/dcmitype/StillImage" />
        <dc:title>Paper Symbolic Icon Theme</dc:title>
      </cc:Work>
    </rdf:RDF>
  </metadata>
  <title
     id="title8473">Paper Symbolic Icon Theme</title>
  <defs
     id="defs7386">
    <filter
       id="filter7554"
       color-interpolation-filters="sRGB">
      <feBlend
         id="feBlend7556"
         in2="BackgroundImage"
         mode="darken" />
    </filter>
  </defs>
  <path
     inkscape:connector-curvature="0"
     d="m 2.59565,4.4727949 c 0,0 -1.0366454,3.6435711 -0.9960662,5.5190178 0.029889,1.5221533 0.9962953,4.4120383 0.9962953,4.4120383 4.99e-5,0.577514 0.474655,1.102954 0.9962954,1.10301 l 7.9703635,0 0.996296,0 c 0.52164,-5.6e-5 0.996245,-0.525496 0.996295,-1.10301 0,0 0.963726,-2.893745 0.996494,-4.4080675 0.03985,-1.8751157 -0.996295,-5.5150469 -0.996295,-5.5150469 z"
     style="color:#ffffff;text-indent:0;text-decoration:none;text-decoration-line:none;text-transform:none;block-progression:tb;opacity:1;fill:#e6e6e6;stroke:#4d4d4d;stroke-width:1;stroke-miterlimit:4;stroke-dasharray:none;stroke-opacity:1;enable-background:accumulate"
     id="path8476" />
  <path
     inkscape:connector-curvature="0"
     d="m 1.5273339,3.5033642 0,1 13.0000001,-0.003 0,-1 c 0,-1 -0.9998,-1.0034 -0.9998,-1.0034 l -3,0 c 0,0 0,-1 -1.0000001,-1 l -3,0 c -1,0 -1,1 -1,1 l -3,0 c 0,0 -1.0002,0.003 -1.0002,1.0034 z"
     style="color:#ffffff;text-indent:0;text-transform:none;block-progression:tb;opacity:1;fill:#e6e6e6;stroke:#4d4d4d;stroke-width:1;stroke-miterlimit:4;stroke-dasharray:none;stroke-opacity:1;enable-background:accumulate"
     id="path8478" />
  <path
     style="fill:none;fill-rule:evenodd;stroke:#4d4d4d;stroke-width:1.07722139px;stroke-linecap:round;stroke-linejoin:miter;stroke-opacity:1"
     d="m 6.2103609,13.454018 c -0.6412114,-2.170636 -1.1310451,-4.3730216 0,-6.9153532 l 0,0"
     id="path4142"
     inkscape:connector-curvature="0"
     sodipodi:nodetypes="ccc" />
  <path
     style="fill:none;fill-rule:evenodd;stroke:#4d4d4d;stroke-width:1.07771778px;stroke-linecap:round;stroke-linejoin:miter;stroke-opacity:1;enable-background:new"
     d="m 9.829869,6.5462333 c 0.641848,2.170479 1.13217,4.3727047 0,6.9148537 l 0,0"
     id="path4142-3"
     inkscape:connector-curvature="0"
     sodipodi:nodetypes="ccc" />
</svg>
